<?xml version="1.0" encoding="UTF-8"?>
<svg width="700pt" height="700pt" version="1.1" viewBox="0 0 700 700" xmlns="http://www.w3.org/2000/svg" xmlns:xlink="http://www.w3.org/1999/xlink">
 <defs>
  <symbol id="o" overflow="visible">
   <path d="m32.906-1.9688c-1.6875 0.88672-3.4531 1.5547-5.2969 2s-3.7617 0.67188-5.75 0.67188c-5.9688 0-10.699-1.6641-14.188-5-3.4805-3.3438-5.2188-7.8672-5.2188-13.578 0-5.7188 1.7383-10.242 5.2188-13.578 3.4883-3.332 8.2188-5 14.188-5 1.9883 0 3.9062 0.22656 5.75 0.67188 1.8438 0.44922 3.6094 1.1094 5.2969 1.9844v7.4062c-1.7109-1.1641-3.3984-2.0195-5.0625-2.5625-1.6562-0.53906-3.4062-0.8125-5.25-0.8125-3.293 0-5.8828 1.0586-7.7656 3.1719-1.8867 2.1055-2.8281 5.0117-2.8281 8.7188 0 3.6992 0.94141 6.6055 2.8281 8.7188 1.8828 2.1055 4.4727 3.1562 7.7656 3.1562 1.8438 0 3.5938-0.26953 5.25-0.8125 1.6641-0.53906 3.3516-1.3945 5.0625-2.5625z"/>
  </symbol>
  <symbol id="b" overflow="visible">
   <path d="m24.078-19.547c-0.75-0.35156-1.5-0.61328-2.25-0.78125-0.74219-0.16406-1.4844-0.25-2.2344-0.25-2.2109 0-3.9062 0.71094-5.0938 2.125-1.1875 1.418-1.7812 3.4453-1.7812 6.0781v12.375h-8.5938v-26.859h8.5938v4.4062c1.1016-1.7578 2.3672-3.0391 3.7969-3.8438 1.4258-0.8125 3.1406-1.2188 5.1406-1.2188 0.28906 0 0.60156 0.015625 0.9375 0.046875 0.33203 0.023438 0.82031 0.070312 1.4688 0.14062z"/>
  </symbol>
  <symbol id="a" overflow="visible">
   <path d="m30.938-13.5v2.4375h-20.078c0.20703 2.0234 0.9375 3.5391 2.1875 4.5469 1.25 1 2.9922 1.5 5.2344 1.5 1.8008 0 3.6484-0.26562 5.5469-0.79688 1.8945-0.53906 3.8438-1.3516 5.8438-2.4375v6.625c-2.0312 0.76172-4.0625 1.3398-6.0938 1.7344s-4.0625 0.59375-6.0938 0.59375c-4.8672 0-8.6484-1.2344-11.344-3.7031-2.6875-2.4766-4.0312-5.9453-4.0312-10.406 0-4.3828 1.3203-7.832 3.9688-10.344 2.6445-2.5078 6.2852-3.7656 10.922-3.7656 4.2266 0 7.6094 1.2734 10.141 3.8125 2.5312 2.543 3.7969 5.9453 3.7969 10.203zm-8.8281-2.8594c0-1.6328-0.47656-2.9453-1.4219-3.9375-0.94922-1-2.1953-1.5-3.7344-1.5-1.6562 0-3.0078 0.46875-4.0469 1.4062-1.043 0.92969-1.6875 2.2734-1.9375 4.0312z"/>
  </symbol>
  <symbol id="h" overflow="visible">
   <path d="m16.172-12.094c-1.793 0-3.1406 0.30859-4.0469 0.92188-0.90625 0.60547-1.3594 1.5-1.3594 2.6875 0 1.0859 0.36328 1.9336 1.0938 2.5469 0.72656 0.61719 1.7383 0.92188 3.0312 0.92188 1.6133 0 2.9727-0.57812 4.0781-1.7344 1.1016-1.1562 1.6562-2.6094 1.6562-4.3594v-0.98438zm13.109-3.2344v15.328h-8.6562v-3.9844c-1.1484 1.6367-2.4453 2.8281-3.8906 3.5781-1.4375 0.73828-3.1875 1.1094-5.25 1.1094-2.7812 0-5.043-0.8125-6.7812-2.4375-1.7305-1.625-2.5938-3.7344-2.5938-6.3281 0-3.1445 1.082-5.4531 3.25-6.9219 2.1641-1.4766 5.5664-2.2188 10.203-2.2188h5.0625v-0.67188c0-1.3516-0.53906-2.3438-1.6094-2.9688-1.0625-0.63281-2.7305-0.95312-5-0.95312-1.8438 0-3.5586 0.18359-5.1406 0.54688-1.5859 0.36719-3.0547 0.91797-4.4062 1.6562v-6.5469c1.832-0.44531 3.6758-0.78516 5.5312-1.0156 1.8516-0.23828 3.707-0.35938 5.5625-0.35938 4.8438 0 8.3359 0.96094 10.484 2.875 2.1562 1.9062 3.2344 5.0117 3.2344 9.3125z"/>
  </symbol>
  <symbol id="g" overflow="visible">
   <path d="m13.5-34.5v7.6406h8.8594v6.1406h-8.8594v11.391c0 1.25 0.24219 2.0938 0.73438 2.5312 0.5 0.4375 1.4883 0.65625 2.9688 0.65625h4.4062v6.1406h-7.3594c-3.3984 0-5.8047-0.70703-7.2188-2.125-1.4062-1.4141-2.1094-3.8164-2.1094-7.2031v-11.391h-4.2812v-6.1406h4.2812v-7.6406z"/>
  </symbol>
  <symbol id="c" overflow="visible">
   <path d="m22.406-22.938v-14.391h8.625v37.328h-8.625v-3.8906c-1.1875 1.5859-2.4961 2.7461-3.9219 3.4844-1.418 0.73828-3.0625 1.1094-4.9375 1.1094-3.3047 0-6.0234-1.3164-8.1562-3.9531-2.125-2.6328-3.1875-6.0195-3.1875-10.156 0-4.1445 1.0625-7.5312 3.1875-10.156 2.1328-2.6328 4.8516-3.9531 8.1562-3.9531 1.8516 0 3.4922 0.375 4.9219 1.125 1.4375 0.74219 2.75 1.8906 3.9375 3.4531zm-5.6562 17.391c1.832 0 3.2344-0.67188 4.2031-2.0156s1.4531-3.2891 1.4531-5.8438c0-2.5625-0.48438-4.5156-1.4531-5.8594s-2.3711-2.0156-4.2031-2.0156c-1.8242 0-3.2188 0.67188-4.1875 2.0156s-1.4531 3.2969-1.4531 5.8594c0 2.5547 0.48438 4.5 1.4531 5.8438s2.3633 2.0156 4.1875 2.0156z"/>
  </symbol>
  <symbol id="f" overflow="visible">
   <path d="m18.422-5.5469c1.8438 0 3.2422-0.67188 4.2031-2.0156 0.96875-1.3438 1.4531-3.2891 1.4531-5.8438 0-2.5625-0.48438-4.5156-1.4531-5.8594-0.96094-1.3438-2.3594-2.0156-4.2031-2.0156s-3.2578 0.67969-4.2344 2.0312c-0.98047 1.3555-1.4688 3.3047-1.4688 5.8438 0 2.543 0.48828 4.4922 1.4688 5.8438 0.97656 1.3438 2.3906 2.0156 4.2344 2.0156zm-5.7031-17.391c1.1758-1.5625 2.4844-2.7109 3.9219-3.4531 1.4453-0.75 3.1016-1.125 4.9688-1.125 3.3125 0 6.0312 1.3203 8.1562 3.9531 2.125 2.625 3.1875 6.0117 3.1875 10.156 0 4.1367-1.0625 7.5234-3.1875 10.156-2.125 2.6367-4.8438 3.9531-8.1562 3.9531-1.8672 0-3.5234-0.37109-4.9688-1.1094-1.4375-0.75-2.7461-1.9102-3.9219-3.4844v3.8906h-8.5938v-37.328h8.5938z"/>
  </symbol>
  <symbol id="e" overflow="visible">
   <path d="m0.59375-26.859h8.5938l7.2188 18.219 6.1406-18.219h8.5938l-11.297 29.406c-1.1367 2.9883-2.4648 5.0781-3.9844 6.2656-1.5117 1.1953-3.5078 1.7969-5.9844 1.7969h-4.9531v-5.6406h2.6875c1.4453 0 2.5039-0.23438 3.1719-0.70312 0.66406-0.46094 1.1797-1.2891 1.5469-2.4844l0.23438-0.75z"/>
  </symbol>
  <symbol id="d" overflow="visible">
   <path d="m26.234-6.5312h-14.438l-2.2812 6.5312h-9.2812l13.266-35.812h11.016l13.266 35.812h-9.2812zm-12.125-6.6406h9.8125l-4.9062-14.25z"/>
  </symbol>
  <symbol id="n" overflow="visible">
   <path d="m31.141-16.359v16.359h-8.6406v-12.516c0-2.3203-0.054688-3.9219-0.15625-4.7969-0.10547-0.88281-0.28906-1.5352-0.54688-1.9531-0.33594-0.55078-0.78906-0.98438-1.3594-1.2969-0.57422-0.3125-1.2305-0.46875-1.9688-0.46875-1.793 0-3.1992 0.69531-4.2188 2.0781-1.0234 1.375-1.5312 3.2891-1.5312 5.7344v13.219h-8.5938v-26.859h8.5938v3.9219c1.2891-1.5625 2.6602-2.7109 4.1094-3.4531 1.457-0.75 3.0664-1.125 4.8281-1.125 3.1016 0 5.457 0.95312 7.0625 2.8594 1.6133 1.9062 2.4219 4.6719 2.4219 8.2969z"/>
  </symbol>
  <symbol id="m" overflow="visible">
   <path d="m4.125-26.859h8.5938v26.375c0 3.6016-0.86719 6.3516-2.5938 8.25-1.7305 1.8945-4.2344 2.8438-7.5156 2.8438h-4.2344v-5.6406h1.4844c1.625 0 2.7383-0.37109 3.3438-1.1094 0.61328-0.73047 0.92188-2.1797 0.92188-4.3438zm0-10.469h8.5938v7.0156h-8.5938z"/>
  </symbol>
  <symbol id="l" overflow="visible">
   <path d="m25.109-26.031v6.5312c-1.8359-0.76953-3.6094-1.3438-5.3281-1.7188-1.7109-0.38281-3.3242-0.57812-4.8438-0.57812-1.625 0-2.8359 0.20312-3.625 0.60938-0.79297 0.40625-1.1875 1.0312-1.1875 1.875 0 0.6875 0.29688 1.2188 0.89062 1.5938 0.60156 0.36719 1.6797 0.63672 3.2344 0.8125l1.5156 0.21875c4.3945 0.55469 7.3477 1.4688 8.8594 2.75 1.5195 1.2812 2.2812 3.2891 2.2812 6.0156 0 2.8672-1.0586 5.0234-3.1719 6.4688-2.1055 1.4375-5.25 2.1562-9.4375 2.1562-1.7734 0-3.6055-0.14062-5.5-0.42188-1.8984-0.28125-3.8438-0.70312-5.8438-1.2656v-6.5312c1.707 0.83594 3.457 1.4609 5.25 1.875 1.8008 0.41797 3.6328 0.625 5.5 0.625 1.6758 0 2.9375-0.22656 3.7812-0.6875 0.84375-0.46875 1.2656-1.1562 1.2656-2.0625 0-0.76953-0.29297-1.3438-0.875-1.7188-0.58594-0.375-1.7461-0.66406-3.4844-0.875l-1.5156-0.1875c-3.8242-0.48828-6.5-1.3789-8.0312-2.6719-1.5312-1.2891-2.2969-3.2578-2.2969-5.9062 0-2.8438 0.97266-4.9531 2.9219-6.3281 1.9453-1.375 4.9375-2.0625 8.9688-2.0625 1.582 0 3.2422 0.12109 4.9844 0.35938 1.75 0.24219 3.6445 0.61719 5.6875 1.125z"/>
  </symbol>
  <symbol id="k" overflow="visible">
   <path d="m4.5156-35.812h9.2344v13.078l13.312-13.078h10.719l-17.25 16.953 19.016 18.859h-11.547l-14.25-14.109v14.109h-9.2344z"/>
  </symbol>
  <symbol id="j" overflow="visible">
   <path d="m4.125-26.859h8.5938v26.859h-8.5938zm0-10.469h8.5938v7.0156h-8.5938z"/>
  </symbol>
  <symbol id="i" overflow="visible">
   <path d="m29.031-22.406c1.082-1.6562 2.3672-2.9219 3.8594-3.7969 1.5-0.875 3.1445-1.3125 4.9375-1.3125 3.082 0 5.4297 0.95312 7.0469 2.8594 1.6133 1.9062 2.4219 4.6719 2.4219 8.2969v16.359h-8.625v-14.016c0.007813-0.19531 0.019531-0.40625 0.03125-0.625 0.007813-0.22656 0.015625-0.55078 0.015625-0.96875 0-1.9062-0.28125-3.2852-0.84375-4.1406-0.5625-0.85156-1.4648-1.2812-2.7031-1.2812-1.6367 0-2.8984 0.67188-3.7812 2.0156-0.88672 1.3438-1.3516 3.2891-1.3906 5.8281v13.188h-8.625v-14.016c0-2.9688-0.25781-4.8789-0.76562-5.7344-0.51172-0.85156-1.4219-1.2812-2.7344-1.2812-1.6484 0-2.918 0.67969-3.8125 2.0312-0.89844 1.3438-1.3438 3.2734-1.3438 5.7812v13.219h-8.6406v-26.859h8.6406v3.9219c1.0508-1.5078 2.2578-2.6484 3.625-3.4219 1.3633-0.76953 2.875-1.1562 4.5312-1.1562 1.8516 0 3.4883 0.44922 4.9062 1.3438 1.4258 0.89844 2.5078 2.1523 3.25 3.7656z"/>
  </symbol>
 </defs>
 <g>
  <!-- <path d="m358.37 34.148 314.39 510.88c4.0273 6.543-0.68359 14.973-8.3672 14.973h-628.77c-7.6836 0-12.395-8.4297-8.3672-14.973l314.39-510.88c3.8359-6.2344 12.898-6.2344 16.734 0zm-8.3672 23.895-296.8 482.31h593.61zm-126.96 309.25c-1.0117-2.418-1.0117-5.1406 0-7.5625 21.195-50.832 70.973-84.641 127-84.641 56.023 0 105.8 33.809 127 84.641 1.0078 2.4219 1.0078 5.1445 0 7.5625-21.199 50.832-70.977 84.641-127 84.641-56.023 0-105.8-33.809-127-84.641zm127 64.992c46.621 0 88.195-27.312 107.21-68.773-19.016-41.461-60.59-68.77-107.21-68.77s-88.191 27.309-107.21 68.77c19.016 41.461 60.586 68.773 107.21 68.773zm-0.035156-39.297c-16.277 0-29.473-13.199-29.473-29.477 0-16.277 13.195-29.473 29.473-29.473s29.473 13.195 29.473 29.473c0 16.277-13.195 29.477-29.473 29.477zm-244.23-88.523-68.77 9.8281c-12.969 1.8516-15.746-17.602-2.7773-19.453l68.77-9.8242c12.969-1.8516 15.746 17.598 2.7773 19.449zm107.48-222-29.473-68.77c-5.1602-12.039 12.898-19.781 18.059-7.7422l29.477 68.773c5.1602 12.039-12.902 19.781-18.062 7.7383zm-84.445 92.977-98.246-58.945c-11.23-6.7422-1.1211-23.59 10.109-16.852l98.246 58.949c11.234 6.7383 1.125 23.586-10.109 16.848zm442.39 0c-4.6523 2.793-10.688 1.2852-13.48-3.3711-2.7891-4.6523-1.2812-10.688 3.3711-13.477l98.246-58.949c4.6523-2.7891 10.688-1.2812 13.477 3.3711 2.793 4.6523 1.2852 10.688-3.3672 13.48zm-84.445-92.977c-2.1367 4.9883-7.9141 7.3008-12.902 5.1602-4.9844-2.1367-7.2969-7.9102-5.1602-12.898l29.477-68.773c2.1367-4.9844 7.9102-7.2969 12.898-5.1602 4.9883 2.1406 7.2969 7.9141 5.1602 12.902zm107.48 222c-5.375-0.76563-9.1055-5.7422-8.3398-11.113 0.76953-5.3711 5.7461-9.1055 11.117-8.3359l68.77 9.8242c5.375 0.76562 9.1055 5.7422 8.3398 11.113-0.76953 5.3711-5.7461 9.1055-11.117 8.3398z" fill-rule="evenodd"/> -->
  <path d="m358.37 34.148 314.39 510.88c4.0273 6.543-0.68359 14.973-8.3672 14.973h-628.77c-7.6836 0-12.395-8.4297-8.3672-14.973l314.39-510.88c3.8359-6.2344 12.898-6.2344 16.734 0zm-8.3672 23.895-296.8 482.31h593.61zm-126.96 309.25c-1.0117-2.418-1.0117-5.1406 0-7.5625 21.195-50.832 70.973-84.641 127-84.641 56.023 0 105.8 33.809 127 84.641 1.0078 2.4219 1.0078 5.1445 0 7.5625-21.199 50.832-70.977 84.641-127 84.641-56.023 0-105.8-33.809-127-84.641zm127 64.992c46.621 0 88.195-27.312 107.21-68.773-19.016-41.461-60.59-68.77-107.21-68.77s-88.191 27.309-107.21 68.77c19.016 41.461 60.586 68.773 107.21 68.773zm-0.035156-39.297c-16.277 0-29.473-13.199-29.473-29.477 0-16.277 13.195-29.473 29.473-29.473s29.473 13.195 29.473 29.473c0 16.277-13.195 29.477-29.473 29.477zm-244.23-88.523-68.77 9.8281c-12.969 1.8516-15.746-17.602-2.7773-19.453l68.77-9.8242c12.969-1.8516 15.746 17.598 2.7773 19.449zm107.48-222-29.473-68.77c-5.1602-12.039 12.898-19.781 18.059-7.7422l29.477 68.773c5.1602 12.039-12.902 19.781-18.062 7.7383zm-84.445 92.977-98.246-58.945c-11.23-6.7422-1.1211-23.59 10.109-16.852l98.246 58.949c11.234 6.7383 1.125 23.586-10.109 16.848zm442.39 0c-4.6523 2.793-10.688 1.2852-13.48-3.3711-2.7891-4.6523-1.2812-10.688 3.3711-13.477l98.246-58.949c4.6523-2.7891 10.688-1.2812 13.477 3.3711 2.793 4.6523 1.2852 10.688-3.3672 13.48zm-84.445-92.977c-2.1367 4.9883-7.9141 7.3008-12.902 5.1602-4.9844-2.1367-7.2969-7.9102-5.1602-12.898l29.477-68.773c2.1367-4.9844 7.9102-7.2969 12.898-5.1602 4.9883 2.1406 7.2969 7.9141 5.1602 12.902zm107.48 222c-5.375-0.76563-9.1055-5.7422-8.3398-11.113 0.76953-5.3711 5.7461-9.1055 11.117-8.3359l68.77 9.8242c5.375 0.76562 9.1055 5.7422 8.3398 11.113-0.76953 5.3711-5.7461 9.1055-11.117 8.3398z" fill-rule="white" fill='%23FF0000'/>
  <!-- <use x="25.789063" y="707.367188" xlink:href="#o"/>
  <use x="61.839844" y="707.367188" xlink:href="#b"/>
  <use x="86.066406" y="707.367188" xlink:href="#a"/>
  <use x="119.382812" y="707.367188" xlink:href="#h"/>
  <use x="152.53125" y="707.367188" xlink:href="#g"/>
  <use x="176.011719" y="707.367188" xlink:href="#a"/>
  <use x="209.328125" y="707.367188" xlink:href="#c"/>
  <use x="261.59375" y="707.367188" xlink:href="#f"/>
  <use x="296.757812" y="707.367188" xlink:href="#e"/>
  <use x="345.878906" y="707.367188" xlink:href="#d"/>
  <use x="383.898438" y="707.367188" xlink:href="#n"/>
  <use x="418.867188" y="707.367188" xlink:href="#c"/>
  <use x="454.03125" y="707.367188" xlink:href="#b"/>
  <use x="478.257812" y="707.367188" xlink:href="#a"/>
  <use x="511.574219" y="707.367188" xlink:href="#m"/>
  <use x="528.410156" y="707.367188" xlink:href="#l"/>
  <use x="574.75" y="707.367188" xlink:href="#k"/>
  <use x="612.816406" y="707.367188" xlink:href="#j"/>
  <use x="629.65625" y="707.367188" xlink:href="#b"/>
  <use x="653.878906" y="707.367188" xlink:href="#i"/> -->
 </g>
</svg>
