<?xml version="1.0" standalone="no"?>
<!DOCTYPE svg PUBLIC "-//W3C//DTD SVG 20010904//EN"
 "http://www.w3.org/TR/2001/REC-SVG-20010904/DTD/svg10.dtd">
<svg version="1.0" xmlns="http://www.w3.org/2000/svg"
 width="280.000000pt" height="392.000000pt" viewBox="0 0 280.000000 392.000000"
 preserveAspectRatio="xMidYMid meet">

<g transform="translate(0.000000,392.000000) scale(0.100000,-0.100000)"
fill="#000000" stroke="none">
<path d="M0 1960 l0 -1960 1400 0 1400 0 0 1960 0 1960 -1400 0 -1400 0 0
-1960z m921 1033 c13 -16 12 -17 -3 -4 -10 7 -18 15 -18 17 0 8 8 3 21 -13z
m1048 -4 c-8 -5 -21 -9 -29 -9 -28 0 -137 -58 -165 -86 -71 -75 -94 -185 -75
-359 24 -231 17 -553 -15 -601 -8 -12 -11 -25 -6 -28 12 -8 -13 -89 -29 -94
-8 -3 -9 -7 -1 -11 7 -5 6 -15 -4 -34 -7 -15 -12 -27 -9 -27 18 0 -92 -171
-154 -240 -33 -36 -41 -41 -42 -25 -1 19 -1 19 -11 2 -6 -9 -15 -14 -21 -11
-7 4 -8 2 -4 -4 5 -8 -1 -12 -14 -12 -13 0 -19 4 -14 12 4 6 3 8 -4 4 -24 -15
-21 17 12 96 39 97 64 179 69 228 3 26 8 35 21 33 14 -1 17 5 14 29 -3 19 0
32 9 35 20 8 16 23 -6 23 -11 0 -23 5 -26 10 -3 6 -1 10 5 10 6 0 9 4 6 9 -9
14 20 21 51 12 24 -7 29 -5 29 11 0 15 -5 18 -26 13 -29 -6 -83 30 -64 43 13
9 27 45 15 38 -10 -6 -21 16 -21 41 0 8 10 23 23 33 22 19 22 19 1 14 -19 -5
-21 -2 -17 20 3 15 1 26 -6 26 -6 0 -11 11 -11 24 0 21 4 24 29 20 36 -6 46
22 18 51 -11 11 -16 14 -12 6 6 -10 4 -12 -5 -6 -10 6 -9 11 6 23 16 13 17 14
2 9 -11 -4 -18 -1 -18 6 0 8 -3 8 -9 -2 -14 -22 -19 0 -17 74 1 64 3 70 23 73
13 2 27 -5 36 -18 14 -21 15 -21 20 -1 4 17 -1 21 -39 27 l-44 6 0 43 c0 23 7
56 15 71 13 25 20 26 16 2 -1 -8 15 -12 33 -9 4 1 23 2 42 3 32 1 50 18 19 18
-8 0 -15 5 -15 11 0 6 -8 9 -18 7 -20 -6 -40 12 -34 30 2 6 -1 12 -8 12 -6 0
-9 -4 -6 -8 2 -4 1 -14 -3 -20 -6 -10 -11 -9 -21 3 -8 10 -9 15 -2 15 6 0 9 7
5 16 -15 40 96 228 125 210 5 -3 14 6 21 20 7 15 17 24 25 21 7 -3 21 4 30 15
10 11 24 17 32 14 10 -4 12 -2 8 6 -5 8 -2 9 9 5 10 -4 17 -2 17 4 0 6 7 8 17
5 9 -4 19 -3 22 2 3 5 28 13 55 17 45 6 49 5 37 -9 -8 -9 -11 -19 -7 -23 3 -3
6 -1 6 6 0 7 4 10 9 7 5 -3 11 1 14 8 3 8 23 16 44 18 45 4 61 -1 42 -13z
m-469 5 c0 -11 -103 -114 -110 -109 -3 2 -7 -1 -7 -8 0 -21 -55 -97 -66 -90
-6 3 -7 1 -3 -5 4 -6 -2 -33 -13 -59 -31 -72 -51 -161 -51 -221 0 -33 -4 -51
-10 -47 -5 3 -10 1 -10 -4 0 -6 4 -11 9 -11 14 0 21 -112 8 -129 -9 -12 -9
-13 1 -7 8 5 12 -2 12 -23 0 -25 -4 -31 -21 -31 -18 0 -20 -2 -9 -15 7 -9 18
-14 24 -12 7 3 12 -17 14 -54 2 -48 0 -58 -12 -53 -8 3 -25 0 -38 -6 -19 -9
-18 -7 5 11 22 17 25 24 16 35 -13 16 -59 19 -59 4 0 -5 3 -9 8 -9 19 3 23 -2
12 -16 -7 -8 -22 -15 -33 -15 -11 0 -17 3 -14 7 4 3 2 12 -3 19 -6 6 -9 18 -8
25 2 9 -6 14 -19 14 -11 0 -25 3 -29 8 -4 4 0 7 9 7 21 0 22 29 2 36 -8 4 -12
11 -9 18 3 6 -1 3 -9 -6 -8 -10 -18 -14 -22 -10 -5 4 -5 1 -1 -6 4 -7 12 -9
19 -5 6 3 1 -7 -11 -24 -24 -34 -29 -73 -9 -73 6 0 4 -5 -6 -11 -9 -6 -15 -14
-12 -20 4 -5 3 -9 -2 -9 -4 0 -8 -13 -8 -29 0 -16 3 -27 8 -24 4 2 7 -1 7 -6
0 -10 -14 -15 -32 -12 -10 1 -10 -12 -2 -33 7 -18 54 -22 54 -5 0 5 4 8 9 4 5
-3 16 2 24 10 19 19 34 20 18 2 -6 -8 -8 -17 -4 -21 4 -4 0 -4 -9 -1 -13 5
-16 2 -13 -14 2 -14 -1 -21 -11 -21 -13 0 -19 -14 -14 -35 2 -5 2 -20 2 -31
-1 -14 4 -21 16 -20 9 0 18 -3 19 -8 1 -5 7 -13 15 -17 10 -7 10 -9 1 -9 -7 0
-13 -4 -13 -10 0 -5 6 -10 14 -10 8 0 22 -10 30 -22 13 -19 19 -20 41 -10 25
12 34 45 15 57 -6 4 -6 15 1 32 9 23 7 30 -13 45 -16 12 -19 18 -8 18 9 1 6 5
-7 10 -26 11 -30 28 -8 36 8 4 12 11 8 18 -3 6 3 3 14 -6 11 -10 24 -18 29
-18 5 0 1 7 -10 15 -10 7 -15 18 -11 24 9 16 25 13 19 -3 -3 -8 -1 -17 5 -20
11 -7 3 -37 -12 -47 -5 -4 -6 -12 -2 -18 5 -9 11 -7 21 6 12 16 12 14 4 -16
-9 -32 -9 -33 9 -17 17 16 19 16 25 1 4 -12 0 -19 -14 -22 -24 -7 -25 -11 -3
-37 17 -20 17 -20 0 -7 -15 12 -17 12 -11 -3 3 -9 1 -22 -5 -30 -6 -7 -8 -16
-4 -19 3 -4 -1 -7 -10 -7 -9 0 -17 -5 -17 -11 0 -7 9 -5 24 5 41 26 42 11 9
-134 -18 -78 -96 -242 -177 -374 -25 -40 -46 -77 -46 -83 0 -12 30 -26 38 -18
3 3 0 5 -7 5 -18 0 70 86 97 94 12 4 22 14 22 22 0 8 5 14 12 14 6 0 9 3 6 6
-4 3 6 18 21 32 15 15 46 50 70 77 41 48 45 50 95 50 l53 0 -50 -44 c-27 -25
-66 -57 -88 -73 -21 -15 -39 -33 -39 -38 0 -11 70 -8 89 4 6 4 11 1 11 -6 0
-9 3 -9 10 2 8 13 10 12 10 -2 0 -11 -8 -18 -20 -18 -13 0 -18 -5 -14 -15 4
-8 11 -12 16 -9 6 4 15 0 20 -7 8 -11 9 -11 5 3 -3 9 1 24 9 35 14 17 15 17
13 -2 -3 -43 0 -50 16 -29 15 19 15 19 12 -1 -1 -11 -7 -27 -12 -35 -8 -13 -7
-13 8 -1 9 7 15 17 12 21 -3 5 -1 11 5 15 17 10 11 25 -10 25 -12 0 -20 7 -20
18 0 14 2 15 10 2 5 -8 10 -10 10 -3 0 6 8 10 18 9 9 -2 23 4 30 13 8 9 10 10
6 2 -5 -10 -3 -12 5 -7 7 5 10 14 8 21 -4 9 18 15 76 24 105 14 137 14 137 -1
0 -10 2 -10 8 0 8 12 24 12 130 -4 23 -3 42 -11 42 -16 0 -6 7 -8 15 -4 8 3
15 1 15 -5 0 -6 5 -7 10 -4 6 4 10 3 9 -2 -3 -19 2 -27 10 -15 7 11 9 10 14
-3 4 -9 3 -14 -2 -10 -5 3 -11 -1 -14 -7 -3 -9 -10 -7 -21 7 l-15 20 -1 -20
c-1 -13 -4 -15 -7 -6 -5 11 -7 11 -14 0 -5 -9 0 -17 19 -24 23 -10 24 -12 9
-18 -13 -5 -16 -3 -12 6 4 6 -1 3 -9 -7 -14 -18 -21 -15 -17 7 0 4 -3 7 -9 7
-5 0 -7 6 -4 14 7 18 -23 29 -45 16 -10 -5 -21 -7 -24 -4 -10 11 -47 -7 -40
-19 4 -7 -1 -6 -10 2 -14 11 -17 11 -17 -1 0 -8 6 -20 13 -27 10 -10 6 -11
-17 -5 -26 6 -27 5 -17 -14 6 -11 10 -47 8 -79 -2 -53 0 -58 17 -55 17 3 18 1
7 -12 -12 -14 -41 -12 -41 3 0 4 -8 8 -17 9 -42 4 -55 9 -64 23 -5 8 -9 9 -9
3 0 -8 -13 -9 -47 -2 -27 6 -60 10 -75 9 -16 -1 -28 3 -28 7 0 5 -12 7 -26 4
-19 -3 -25 -1 -20 7 4 6 2 11 -3 11 -6 0 -11 7 -11 15 0 8 -4 15 -8 15 -5 0
-9 -7 -9 -15 0 -8 4 -15 9 -15 4 0 8 -4 8 -8 0 -5 -19 -9 -42 -10 -87 -4 -243
-32 -348 -64 -74 -22 -236 -83 -263 -99 -11 -6 -21 -8 -24 -5 -4 3 7 11 24 18
17 8 28 19 25 26 -2 7 2 13 9 11 8 -1 23 0 34 1 15 2 12 4 -10 10 -28 7 -28 8
-8 15 13 4 20 12 16 21 -6 17 27 45 42 37 5 -4 7 -3 3 2 -8 8 9 35 22 35 4 0
5 -12 2 -26 -4 -24 -3 -25 17 -13 11 8 21 17 21 22 0 4 -4 6 -9 3 -5 -3 -12 1
-15 10 -8 20 21 67 35 59 5 -4 7 -10 4 -14 -2 -5 7 -6 20 -3 27 5 32 19 12 36
-7 6 -10 10 -8 9 2 -2 10 5 18 15 8 9 12 12 9 5 -4 -6 -2 -14 3 -17 14 -9 41
4 41 20 0 8 6 14 13 14 8 0 7 3 -3 10 -9 5 -19 5 -28 -2 -9 -8 -16 -8 -24 0
-8 8 -4 28 17 74 20 47 27 78 26 122 -1 57 -27 136 -50 150 -6 4 -9 11 -6 16
3 5 -4 11 -15 15 -12 4 -17 11 -14 18 4 7 4 9 -1 5 -11 -10 -65 23 -65 40 0
11 -3 12 -13 4 -16 -14 -54 -5 -61 15 -12 29 98 51 169 33 6 -1 22 -2 37 -1
24 1 26 4 22 34 -22 151 -106 226 -251 227 -55 0 -73 3 -73 14 0 20 27 39 42
30 10 -6 10 -4 0 9 -12 14 -10 19 19 36 41 25 101 35 179 29 l60 -4 1 45 c1
106 7 238 12 261 3 14 6 29 6 34 1 5 9 2 19 -5 15 -12 16 -12 5 1 -6 9 -11 22
-9 30 6 38 39 120 52 130 7 7 14 19 14 27 0 8 4 12 9 8 5 -3 12 4 16 15 3 11
11 20 16 20 6 0 7 6 3 13 -4 6 -3 8 1 4 13 -11 15 -37 3 -34 -6 1 -12 -3 -15
-10 -3 -7 3 -10 16 -6 24 6 50 33 32 33 -6 0 -11 6 -11 14 0 8 -6 17 -12 19
-7 3 -4 6 7 6 17 1 17 3 5 11 -12 8 -11 10 7 10 12 0 29 3 39 7 12 4 15 3 10
-6 -5 -7 -2 -10 6 -9 8 2 13 -6 12 -19 -1 -13 4 -23 12 -23 8 0 14 5 14 10 0
6 -5 10 -12 10 -6 0 -4 6 6 13 16 12 16 14 -3 31 -12 11 -21 15 -21 10 0 -5
-14 -10 -31 -10 -32 -1 -32 -1 -8 12 13 7 23 15 22 18 -7 14 -2 27 7 21 6 -3
10 -2 10 3 0 16 -13 22 -26 11 -8 -6 -21 -9 -29 -5 -9 3 -14 2 -11 -3 3 -4 -6
-13 -20 -20 -20 -9 -30 -9 -40 0 -12 10 -13 9 -8 -5 3 -9 2 -16 -2 -16 -5 0
-20 -3 -34 -7 -22 -6 -24 -5 -11 10 12 15 11 17 -6 17 -10 0 -25 6 -32 13 -10
10 -11 9 -6 -5 4 -10 3 -18 -3 -18 -17 0 -26 22 -12 30 15 9 5 30 -15 30 -9 0
-12 -7 -9 -17 2 -10 -1 -7 -8 7 -7 14 -15 27 -18 30 -3 3 -6 13 -5 23 0 9 -4
17 -9 16 -5 0 -13 5 -17 13 -6 9 -9 7 -9 -9 0 -13 -5 -23 -10 -23 -6 0 -9 -3
-9 -7 1 -5 0 -11 -1 -15 -1 -5 -3 -14 -4 -20 0 -7 -10 -14 -21 -15 -16 -1 -16
-1 -2 3 9 3 15 9 12 14 -3 5 -1 12 5 15 8 5 7 12 -2 23 -8 10 -9 13 -1 9 19
-12 27 13 8 27 -15 11 -13 12 13 10 17 -1 36 -5 44 -10 7 -4 4 2 -6 14 -11 12
-26 22 -35 23 -9 0 -11 3 -4 5 6 3 30 -7 53 -22 39 -26 41 -26 55 -8 8 10 15
23 15 28 0 5 3 7 6 4 3 -4 1 -16 -5 -27 -9 -17 -9 -20 3 -15 11 4 14 0 11 -15
-2 -12 0 -19 6 -16 5 4 7 11 4 16 -4 5 0 9 7 10 10 0 10 2 1 6 -16 6 -17 29
-3 38 6 3 14 -4 19 -17 6 -13 10 -17 10 -10 1 6 5 12 10 12 5 0 8 -12 5 -27
-4 -25 -3 -26 9 -11 8 10 17 15 21 11 4 -4 4 1 0 10 -6 16 -1 17 62 11 38 -4
71 -11 72 -15 2 -5 10 -9 18 -9 9 0 12 5 8 11 -5 8 4 10 29 7 20 -2 38 -1 39
2 3 6 117 58 131 59 4 1 7 -2 7 -5z m-510 -14 c8 -5 11 -10 5 -10 -5 0 -17 5
-25 10 -8 5 -10 10 -5 10 6 0 17 -5 25 -10z m-293 -67 c-4 -3 -2 -12 4 -20 6
-7 10 -13 8 -14 -34 -7 -38 -6 -32 4 4 7 8 15 9 20 3 15 4 17 11 17 3 0 3 -3
0 -7z m87 -42 c4 -5 -3 -7 -14 -4 -23 6 -26 13 -6 13 8 0 17 -4 20 -9z m146
-16 c-10 -12 -10 -18 0 -30 7 -8 17 -12 23 -8 6 4 7 1 3 -6 -6 -9 -13 -8 -27
5 -22 20 -25 40 -6 47 20 8 20 8 7 -8z m-182 -7 c-2 -7 3 -12 10 -10 8 1 11
-2 8 -7 -4 -5 0 -12 6 -14 9 -4 9 -6 1 -6 -16 -1 -44 29 -38 40 9 13 15 11 13
-3z m212 -2 c0 -3 -4 -8 -10 -11 -5 -3 -10 -1 -10 4 0 6 5 11 10 11 6 0 10 -2
10 -4z m-343 -52 c-3 -3 -12 -4 -19 -1 -8 3 -5 6 6 6 11 1 17 -2 13 -5z m313
-27 c0 -4 -5 -5 -11 -1 -7 4 -21 8 -33 9 -50 6 -51 6 -31 14 20 8 75 -8 75
-22z m109 16 c8 8 11 8 11 -1 0 -13 -1 -13 -40 -17 -25 -3 -43 12 -33 28 2 4
15 1 28 -7 17 -11 25 -12 34 -3z m-74 -13 c3 -5 -1 -10 -9 -10 -9 0 -16 5 -16
10 0 6 4 10 9 10 6 0 13 -4 16 -10z m497 -512 c-7 -7 -12 -8 -12 -2 0 6 3 14
7 17 3 4 9 5 12 2 2 -3 -1 -11 -7 -17z m-275 -200 c-3 -8 -6 -5 -6 6 -1 11 2
17 5 13 3 -3 4 -12 1 -19z m-41 -23 c1 -8 -2 -15 -7 -15 -5 0 -9 10 -9 22 0
23 12 17 16 -7z m-32 -6 c-3 -6 -12 -8 -18 -6 -7 3 -18 -4 -25 -14 -6 -11 -16
-17 -22 -13 -18 11 22 45 44 38 14 -4 17 -3 12 6 -5 9 -4 11 4 6 6 -4 9 -12 5
-17z m166 -7 c0 -8 -1 -13 -3 -11 -1 2 -9 12 -16 22 -12 15 -12 17 3 11 9 -3
16 -13 16 -22z m-60 2 c0 -2 -7 -4 -15 -4 -8 0 -15 4 -15 10 0 5 7 7 15 4 8
-4 15 -8 15 -10z m-120 -104 c0 -5 -8 -10 -17 -10 -15 0 -16 2 -3 10 19 12 20
12 20 0z m25 1 c3 -5 1 -12 -5 -16 -5 -3 -10 1 -10 9 0 18 6 21 15 7z m85
-117 c0 -2 -7 -4 -15 -4 -8 0 -15 4 -15 10 0 5 7 7 15 4 8 -4 15 -8 15 -10z
m624 -539 c-4 -8 -11 -15 -16 -15 -6 0 -5 6 2 15 7 8 14 15 16 15 2 0 1 -7 -2
-15z m161 -6 c11 -16 1 -19 -13 -3 -7 8 -8 14 -3 14 5 0 13 -5 16 -11z m-135
-34 c0 -5 -5 -3 -10 5 -5 8 -10 20 -10 25 0 6 5 3 10 -5 5 -8 10 -19 10 -25z
m140 2 c11 -5 9 -6 -4 -4 -11 1 -21 9 -23 17 -3 10 -2 11 4 4 4 -6 15 -14 23
-17z m-226 -15 c2 -4 -5 -9 -17 -9 -17 -2 -19 0 -7 7 18 12 18 12 24 2z m121
-25 c16 1 16 1 3 -3 -10 -3 -18 -10 -18 -16 0 -16 -23 -3 -26 15 -1 11 2 14 9
10 7 -4 21 -7 32 -6z m-111 -16 c17 -19 17 -20 -3 -30 -18 -10 -19 -8 -15 16
4 23 3 25 -11 13 -13 -11 -15 -10 -9 4 8 21 17 20 38 -3z m172 -6 c-1 -8 -5
-17 -8 -21 -5 -4 -4 16 1 34 3 9 9 -1 7 -13z m-100 -31 c2 -11 -1 -12 -10 -5
-7 6 -15 8 -18 5 -3 -3 -9 0 -14 7 -4 7 -3 10 4 5 6 -3 14 -1 17 5 8 12 18 5
21 -17z m-109 10 c-3 -4 -2 -15 3 -24 7 -14 5 -19 -9 -23 -10 -2 -18 1 -18 9
0 7 5 10 10 7 6 -4 8 0 4 9 -5 15 0 28 11 28 3 0 2 -3 -1 -6z m257 -2 c3 -5
-1 -9 -9 -9 -8 0 -12 4 -9 9 3 4 7 8 9 8 2 0 6 -4 9 -8z m-178 -88 c-1 -8 -6
-17 -12 -21 -5 -4 -6 -4 -2 1 4 5 3 14 -2 21 -7 8 -5 12 4 12 8 0 13 -6 12
-13z m-28 -19 c-3 -3 -9 2 -12 12 -6 14 -5 15 5 6 7 -7 10 -15 7 -18z m332 12
c0 -2 -10 -12 -22 -23 l-23 -19 19 23 c18 21 26 27 26 19z m-50 -50 c0 -2 -12
-14 -27 -28 l-28 -24 24 28 c23 25 31 32 31 24z"/>
<path d="M1800 2968 c0 -9 5 -20 10 -23 13 -8 13 5 0 25 -8 13 -10 13 -10 -2z"/>
<path d="M1620 2846 c0 -3 9 -10 20 -16 11 -6 20 -8 20 -6 0 3 -9 10 -20 16
-11 6 -20 8 -20 6z"/>
<path d="M1655 2740 c3 -5 8 -10 11 -10 2 0 4 5 4 10 0 6 -5 10 -11 10 -5 0
-7 -4 -4 -10z"/>
<path d="M1650 2710 c0 -5 5 -10 10 -10 6 0 10 5 10 10 0 6 -4 10 -10 10 -5 0
-10 -4 -10 -10z"/>
<path d="M1580 2701 c0 -6 4 -13 10 -16 6 -3 7 1 4 9 -7 18 -14 21 -14 7z"/>
<path d="M1618 2703 c7 -3 16 -2 19 1 4 3 -2 6 -13 5 -11 0 -14 -3 -6 -6z"/>
<path d="M1511 2664 c0 -11 3 -14 6 -6 3 7 2 16 -1 19 -3 4 -6 -2 -5 -13z"/>
<path d="M1640 2460 c0 -5 4 -10 9 -10 6 0 13 5 16 10 3 6 -1 10 -9 10 -9 0
-16 -4 -16 -10z"/>
<path d="M1571 2424 c0 -11 3 -14 6 -6 3 7 2 16 -1 19 -3 4 -6 -2 -5 -13z"/>
<path d="M1605 2430 c-4 -6 3 -10 14 -10 25 0 27 6 6 13 -8 4 -17 2 -20 -3z"/>
<path d="M1651 2294 c0 -11 3 -14 6 -6 3 7 2 16 -1 19 -3 4 -6 -2 -5 -13z"/>
<path d="M1520 2235 c-7 -8 -19 -15 -26 -15 -8 0 -14 -6 -14 -13 0 -20 21 -37
45 -36 11 0 14 3 8 6 -7 2 -13 9 -13 15 0 6 7 8 15 5 8 -4 17 -2 20 2 3 5 -2
12 -11 15 -21 8 -8 27 14 20 14 -5 15 -4 2 5 -20 14 -25 14 -40 -4z"/>
<path d="M1591 2204 c0 -11 3 -14 6 -6 3 7 2 16 -1 19 -3 4 -6 -2 -5 -13z"/>
<path d="M1560 2160 c0 -7 -7 -10 -16 -6 -23 9 -13 -14 14 -32 14 -9 22 -10
22 -3 0 6 -8 11 -17 12 -12 1 -10 3 6 8 21 6 22 8 7 20 -12 10 -16 10 -16 1z"/>
<path d="M1623 2151 c0 -11 5 -17 9 -15 11 7 10 34 -1 34 -6 0 -9 -9 -8 -19z"/>
<path d="M1500 2118 c-12 -22 -12 -22 6 -6 10 10 15 20 12 24 -4 3 -12 -5 -18
-18z"/>
<path d="M1590 2120 c0 -5 5 -10 11 -10 5 0 7 5 4 10 -3 6 -8 10 -11 10 -2 0
-4 -4 -4 -10z"/>
<path d="M1526 2092 c-3 -5 1 -9 9 -9 8 0 12 4 9 9 -3 4 -7 8 -9 8 -2 0 -6 -4
-9 -8z"/>
<path d="M1595 2040 c3 -5 8 -10 11 -10 2 0 4 5 4 10 0 6 -5 10 -11 10 -5 0
-7 -4 -4 -10z"/>
<path d="M1506 2015 c8 -37 14 -45 14 -19 0 10 -5 26 -10 34 -8 11 -9 7 -4
-15z"/>
<path d="M1590 1930 c0 -5 5 -10 11 -10 5 0 7 5 4 10 -3 6 -8 10 -11 10 -2 0
-4 -4 -4 -10z"/>
<path d="M1520 1910 c0 -5 10 -12 22 -16 20 -6 20 -8 -13 -25 l-34 -18 40 6
c56 8 73 35 33 49 -36 12 -48 13 -48 4z"/>
<path d="M1604 1891 c4 -5 0 -12 -6 -14 -7 -3 0 -6 16 -6 24 -1 27 1 16 14
-13 16 -35 21 -26 6z"/>
<path d="M1510 1830 c-13 -10 -28 -16 -33 -13 -5 3 -1 -9 8 -27 9 -17 19 -29
22 -26 3 3 0 12 -6 20 -18 22 23 43 47 24 15 -11 15 -11 6 2 -6 8 -13 20 -15
27 -3 8 -12 6 -29 -7z"/>
<path d="M1583 1837 c9 -8 17 -20 17 -26 0 -7 5 -9 10 -6 13 8 4 22 -23 35
-20 10 -20 10 -4 -3z"/>
<path d="M1560 1780 c0 -5 0 -13 1 -16 0 -4 -5 -10 -11 -14 -9 -5 -8 -9 2 -13
10 -3 15 4 16 24 1 16 0 29 -3 29 -3 0 -5 -4 -5 -10z"/>
<path d="M1470 1739 c0 -5 5 -7 10 -4 6 3 10 8 10 11 0 2 -4 4 -10 4 -5 0 -10
-5 -10 -11z"/>
<path d="M1570 1706 c0 -8 -5 -16 -12 -18 -6 -2 -12 -12 -14 -21 -1 -9 2 -15
7 -11 5 3 7 10 4 15 -4 5 -1 9 4 9 6 0 11 -8 12 -17 0 -14 2 -15 6 -3 3 8 10
18 15 21 10 7 0 39 -13 39 -5 0 -9 -6 -9 -14z"/>
<path d="M1155 2921 c-3 -5 0 -13 6 -17 7 -4 9 -3 5 4 -3 5 0 13 6 15 9 4 10
6 1 6 -6 1 -14 -3 -18 -8z"/>
<path d="M1325 2920 c-3 -5 -2 -17 2 -25 8 -14 11 -14 28 0 19 14 19 15 1 8
-13 -4 -17 -3 -12 5 3 6 2 13 -3 16 -5 4 -12 2 -16 -4z"/>
<path d="M965 2899 c6 -29 14 -39 35 -39 10 0 21 -9 25 -19 4 -13 12 -18 22
-14 12 5 14 3 8 -7 -6 -10 -3 -12 16 -6 44 13 54 13 61 2 4 -6 6 -2 6 10 -2
14 -9 20 -27 19 -19 0 -25 5 -23 17 2 14 -1 15 -22 5 -13 -6 -22 -15 -20 -19
3 -5 1 -8 -4 -8 -6 0 -12 7 -16 15 -3 8 0 15 6 15 13 0 -41 44 -58 46 -7 1
-11 -6 -9 -17z m30 -10 c-4 -5 2 -9 12 -10 11 0 13 -3 5 -6 -16 -6 -44 16 -36
28 3 5 10 7 15 3 5 -3 7 -10 4 -15z"/>
<path d="M1250 2879 c0 -5 5 -7 10 -4 6 3 10 8 10 11 0 2 -4 4 -10 4 -5 0 -10
-5 -10 -11z"/>
<path d="M1177 2873 c-4 -3 -7 -11 -7 -17 0 -6 5 -5 12 2 6 6 9 14 7 17 -3 3
-9 2 -12 -2z"/>
<path d="M1205 2860 c-3 -5 -1 -10 4 -10 6 0 11 5 11 10 0 6 -2 10 -4 10 -3 0
-8 -4 -11 -10z"/>
<path d="M1284 2834 c-18 -14 -18 -15 4 -4 12 6 22 13 22 15 0 8 -5 6 -26 -11z"/>
<path d="M1207 2673 c-14 -13 -6 -25 8 -13 12 10 15 10 15 -4 0 -9 5 -16 10
-16 12 0 9 22 -5 32 -13 10 -20 10 -28 1z"/>
<path d="M1090 2506 c0 -2 7 -7 16 -10 8 -3 12 -2 9 4 -6 10 -25 14 -25 6z"/>
<path d="M1150 2490 c0 -5 5 -10 11 -10 5 0 7 5 4 10 -3 6 -8 10 -11 10 -2 0
-4 -4 -4 -10z"/>
<path d="M1160 2458 c0 -5 5 -6 10 -3 6 3 10 2 10 -4 0 -6 7 -8 15 -5 23 9 18
19 -10 20 -14 1 -25 -2 -25 -8z"/>
<path d="M1030 2300 c-12 -7 -10 -9 7 -7 12 0 19 5 17 9 -6 10 -6 10 -24 -2z"/>
<path d="M1193 2286 c-3 -6 -3 -8 2 -4 4 4 14 3 22 -4 9 -8 17 -8 24 -1 7 7 2
12 -16 15 -14 3 -28 0 -32 -6z"/>
<path d="M1145 2210 c-3 -5 -1 -10 4 -10 6 0 11 5 11 10 0 6 -2 10 -4 10 -3 0
-8 -4 -11 -10z"/>
<path d="M1232 2188 c2 -6 10 -14 16 -16 7 -2 10 2 6 12 -7 18 -28 22 -22 4z"/>
<path d="M760 2076 c0 -2 7 -7 16 -10 8 -3 12 -2 9 4 -6 10 -25 14 -25 6z"/>
<path d="M1014 1938 l-19 -23 23 19 c21 18 27 26 19 26 -2 0 -12 -10 -23 -22z"/>
<path d="M1180 1950 c0 -5 9 -10 21 -10 11 0 17 5 14 10 -3 6 -13 10 -21 10
-8 0 -14 -4 -14 -10z"/>
<path d="M1240 1730 c0 -5 5 -10 11 -10 5 0 7 5 4 10 -3 6 -8 10 -11 10 -2 0
-4 -4 -4 -10z"/>
<path d="M1000 1710 c0 -5 4 -10 9 -10 6 0 13 5 16 10 3 6 -1 10 -9 10 -9 0
-16 -4 -16 -10z"/>
<path d="M1190 1629 c0 -5 5 -7 10 -4 6 3 10 8 10 11 0 2 -4 4 -10 4 -5 0 -10
-5 -10 -11z"/>
<path d="M1106 1469 c3 -5 12 -9 21 -9 19 0 9 13 -12 16 -8 1 -13 -2 -9 -7z"/>
<path d="M1070 1429 c0 -5 5 -7 10 -4 6 3 10 8 10 11 0 2 -4 4 -10 4 -5 0 -10
-5 -10 -11z"/>
<path d="M1550 1289 c0 -5 5 -7 10 -4 6 3 10 8 10 11 0 2 -4 4 -10 4 -5 0 -10
-5 -10 -11z"/>
<path d="M995 1270 c-3 -5 -1 -10 4 -10 6 0 11 5 11 10 0 6 -2 10 -4 10 -3 0
-8 -4 -11 -10z"/>
<path d="M1610 1265 c0 -8 2 -15 4 -15 2 0 11 -3 19 -6 8 -3 17 2 21 12 4 12
2 15 -9 10 -8 -3 -15 -1 -15 4 0 6 -4 10 -10 10 -5 0 -10 -7 -10 -15z"/>
<path d="M1290 1259 c0 -5 5 -7 10 -4 6 3 10 8 10 11 0 2 -4 4 -10 4 -5 0 -10
-5 -10 -11z"/>
<path d="M1475 1260 c3 -5 8 -10 11 -10 2 0 4 5 4 10 0 6 -5 10 -11 10 -5 0
-7 -4 -4 -10z"/>
<path d="M1681 1259 c-13 -5 -21 -15 -18 -23 3 -7 2 -17 -3 -22 -5 -5 2 -10
16 -10 13 -1 24 3 23 10 -3 24 1 37 11 31 6 -3 10 1 10 9 0 18 -5 19 -39 5z"/>
<path d="M1545 1250 c-3 -5 -1 -10 4 -10 6 0 11 5 11 10 0 6 -2 10 -4 10 -3 0
-8 -4 -11 -10z"/>
<path d="M1510 1239 c0 -5 5 -7 10 -4 6 3 10 8 10 11 0 2 -4 4 -10 4 -5 0 -10
-5 -10 -11z"/>
<path d="M1230 1220 c-13 -8 -12 -10 3 -10 9 0 17 5 17 10 0 12 -1 12 -20 0z"/>
<path d="M1340 1226 c0 -2 8 -10 18 -17 15 -13 16 -12 3 4 -13 16 -21 21 -21
13z"/>
<path d="M1530 1218 c0 -4 7 -8 15 -8 8 0 15 4 15 8 0 5 -7 9 -15 9 -8 0 -15
-4 -15 -9z"/>
<path d="M1188 1213 c7 -3 16 -2 19 1 4 3 -2 6 -13 5 -11 0 -14 -3 -6 -6z"/>
<path d="M1495 1210 c-3 -6 1 -7 9 -4 18 7 21 14 7 14 -6 0 -13 -4 -16 -10z"/>
<path d="M1575 1210 c3 -5 12 -7 20 -3 21 7 19 13 -6 13 -11 0 -18 -4 -14 -10z"/>
<path d="M1627 1193 c5 -13 2 -15 -12 -10 -24 10 -58 -2 -52 -18 3 -7 1 -18
-4 -24 -6 -8 -5 -8 3 -1 18 15 38 12 38 -6 0 -8 5 -12 10 -9 6 4 8 10 6 14 -3
4 5 8 17 8 17 2 19 0 7 -7 -13 -8 -12 -10 3 -10 9 0 17 -5 17 -11 0 -5 -4 -8
-9 -4 -5 3 -13 0 -17 -7 -4 -7 -4 -10 1 -6 4 4 15 2 23 -5 13 -10 15 -7 9 27
-3 22 -12 43 -19 48 -11 6 -10 8 0 8 10 0 10 3 -2 15 -19 20 -27 19 -19 -2z
m3 -29 c0 -2 -15 -4 -32 -3 -27 0 -29 2 -13 8 18 8 45 4 45 -5z"/>
<path d="M1180 1180 c0 -5 7 -10 16 -10 8 0 12 5 9 10 -3 6 -10 10 -16 10 -5
0 -9 -4 -9 -10z"/>
<path d="M1690 1177 c-18 -15 -24 -37 -9 -37 5 0 7 -4 4 -10 -3 -5 -1 -10 5
-10 6 0 10 6 9 13 -1 6 1 20 6 30 10 23 4 28 -15 14z"/>
<path d="M1075 1170 c3 -5 8 -10 11 -10 2 0 4 5 4 10 0 6 -5 10 -11 10 -5 0
-7 -4 -4 -10z"/>
<path d="M1140 1172 c-8 -4 -16 -13 -18 -21 -2 -11 0 -12 11 -3 8 7 16 10 19
7 2 -3 5 2 5 10 0 8 -1 15 -1 14 -1 0 -8 -3 -16 -7z"/>
<path d="M1460 1171 c0 -6 4 -13 10 -16 6 -3 7 1 4 9 -7 18 -14 21 -14 7z"/>
<path d="M1495 1144 c-9 -15 -12 -23 -6 -20 11 7 35 46 28 46 -3 0 -12 -12
-22 -26z"/>
<path d="M1170 1149 c0 -5 5 -7 10 -4 6 3 10 8 10 11 0 2 -4 4 -10 4 -5 0 -10
-5 -10 -11z"/>
<path d="M970 1140 c0 -5 5 -10 11 -10 5 0 7 5 4 10 -3 6 -8 10 -11 10 -2 0
-4 -4 -4 -10z"/>
<path d="M974 1096 c4 -27 24 -42 31 -23 4 9 13 13 20 11 7 -3 16 -1 19 5 4 5
-2 10 -11 10 -10 -1 -28 2 -40 6 -16 5 -21 3 -19 -9z"/>
<path d="M875 1060 c-3 -5 -1 -10 4 -10 6 0 11 5 11 10 0 6 -2 10 -4 10 -3 0
-8 -4 -11 -10z"/>
<path d="M840 1045 c0 -8 4 -15 10 -15 5 0 7 7 4 15 -4 8 -8 15 -10 15 -2 0
-4 -7 -4 -15z"/>
</g>
</svg>
